<?xml version="1.0" encoding="UTF-8"?>
<svg version="1.1" xmlns="http://www.w3.org/2000/svg" width="250" height="250">
<path d="M0 0 C6.23748473 1.65872967 10.82865441 8.32060087 14.76342773 13.05957031 C22.30093978 21.93630133 29.82144626 30.56622778 41.8894043 32.51708984 C52.40043175 33.05411614 59.29399679 30.19208718 66.98999023 23.27832031 C73.33776293 17.33160946 79.13347229 10.88112643 84.75 4.24731445 C87.82359556 0.76508876 88.31320602 0.6284516 92.99389648 0.25097656 C95.94858301 0.31007029 97.00948042 0.49782692 99.61889648 2.06347656 C101.30878979 4.87996541 101.8719685 7.13099464 101.68920898 10.42675781 C100.52681952 14.78173753 97.23218244 17.4744624 94.11889648 20.56347656 C92.94798462 21.73438843 92.94798462 21.73438843 91.75341797 22.92895508 C89.54191081 25.14046224 87.33040365 27.3519694 85.11889648 29.56347656 C86.30854004 29.57805908 87.49818359 29.5926416 88.72387695 29.60766602 C93.17843232 29.66606226 97.63250383 29.74328944 102.08666992 29.82592773 C104.00683686 29.85898402 105.92709645 29.88707468 107.84741211 29.90991211 C110.62320088 29.94381597 113.398155 29.99614565 116.17358398 30.05175781 C117.44140213 30.0613427 117.44140213 30.0613427 118.73483276 30.07112122 C128.05066816 30.29597201 135.95254008 32.48765266 143.11889648 38.56347656 C143.11889648 39.22347656 143.11889648 39.88347656 143.11889648 40.56347656 C143.77889648 40.56347656 144.43889648 40.56347656 145.11889648 40.56347656 C146.73999023 42.39941406 146.73999023 42.39941406 148.55639648 44.93847656 C149.15323242 45.75058594 149.75006836 46.56269531 150.36499023 47.39941406 C154.6485475 55.12698953 155.56347558 62.83531416 155.52294922 71.54589844 C155.52981247 72.59443497 155.53667572 73.6429715 155.54374695 74.72328186 C155.56192035 78.15973785 155.55819134 81.59573324 155.55249023 85.03222656 C155.55705607 87.43778632 155.56236284 89.84334478 155.56837463 92.24890137 C155.57728682 97.27878129 155.5749035 102.30850227 155.56494141 107.33837891 C155.5534456 113.76738579 155.57368298 120.19584391 155.60285854 126.62477875 C155.62124766 131.58863783 155.62092277 136.552366 155.61522102 141.51625061 C155.61506819 143.88599925 155.62108099 146.25575698 155.6335125 148.62547302 C155.64847409 151.9443459 155.63770707 155.26221221 155.62060547 158.58105469 C155.63510742 160.03240562 155.63510742 160.03240562 155.64990234 161.51307678 C155.57743516 168.26625352 154.01803213 173.4864098 151.11889648 179.56347656 C150.81306861 180.20625801 150.50724073 180.84903946 150.19214535 181.51129913 C149.52359346 182.87331758 148.82555153 184.22083197 148.11889648 185.56347656 C147.45889648 185.56347656 146.79889648 185.56347656 146.11889648 185.56347656 C145.89202148 186.14097656 145.66514648 186.71847656 145.43139648 187.31347656 C143.77041426 190.16087465 141.80365087 191.68414849 139.11889648 193.56347656 C138.45889648 193.56347656 137.79889648 193.56347656 137.11889648 193.56347656 C137.11889648 194.22347656 137.11889648 194.88347656 137.11889648 195.56347656 C129.05365053 198.9593696 121.73628501 198.87002398 113.11889648 198.56347656 C113.00416992 199.49546875 112.88944336 200.42746094 112.77124023 201.38769531 C111.93613503 205.45320748 110.22760003 206.90970524 107.11889648 209.56347656 C103.40875971 211.41854495 99.16796825 211.01682356 95.11889648 210.56347656 C91.78736819 208.89771242 89.84548558 207.62033343 87.74389648 204.56347656 C87.11889648 202.56347656 87.11889648 202.56347656 87.11889648 198.56347656 C59.72889648 198.56347656 32.33889648 198.56347656 4.11889648 198.56347656 C3.62389648 201.53347656 3.62389648 201.53347656 3.11889648 204.56347656 C-1.89196876 210.34524415 -1.89196876 210.34524415 -6.05297852 210.80175781 C-12.00804266 210.97319148 -15.37887488 210.59178639 -19.88110352 206.56347656 C-19.88110352 205.90347656 -19.88110352 205.24347656 -19.88110352 204.56347656 C-20.54110352 204.56347656 -21.20110352 204.56347656 -21.88110352 204.56347656 C-22.21110352 202.58347656 -22.54110352 200.60347656 -22.88110352 198.56347656 C-23.84790039 198.60988281 -24.81469727 198.65628906 -25.81079102 198.70410156 C-37.52654141 199.02889464 -45.45567148 197.43407987 -54.18969727 189.24707031 C-54.74786133 188.69148437 -55.30602539 188.13589844 -55.88110352 187.56347656 C-56.41864258 187.03882813 -56.95618164 186.51417969 -57.51000977 185.97363281 C-64.67612508 178.60335467 -65.33115789 167.28535102 -65.26928711 157.55932617 C-65.27454407 156.52039719 -65.27980103 155.4814682 -65.28521729 154.41105652 C-65.29830875 151.01248677 -65.28971833 147.61439396 -65.27954102 144.21582031 C-65.28156471 141.83411063 -65.28447861 139.45240155 -65.28823853 137.07069397 C-65.29264706 132.09386256 -65.28627759 127.11719333 -65.2722168 122.14038086 C-65.25511671 115.77985967 -65.26498101 109.4197181 -65.28293419 103.05921078 C-65.29380375 98.14597238 -65.29031126 93.23282315 -65.28255081 88.31958199 C-65.28055807 85.9749605 -65.28297534 83.63033076 -65.28998947 81.28571892 C-65.2976572 78.00300691 -65.2859254 74.7208997 -65.26928711 71.43823242 C-65.2753598 70.48158691 -65.2814325 69.52494141 -65.28768921 68.53930664 C-65.21130609 60.35353713 -63.93803988 52.17835828 -58.50610352 45.75097656 C-57.8912207 45.01878906 -57.27633789 44.28660156 -56.64282227 43.53222656 C-49.96856619 36.07363441 -43.74426792 31.27297986 -33.5480957 30.35296631 C-31.00183995 30.23947686 -28.46090284 30.18296608 -25.91235352 30.14941406 C-24.53098206 30.12036484 -24.53098206 30.12036484 -23.1217041 30.09072876 C-20.20826193 30.03141158 -17.29477921 29.98474068 -14.38110352 29.93847656 C-12.39410804 29.90025265 -10.40712835 29.86119841 -8.42016602 29.82128906 C-3.57394155 29.72574992 1.27236036 29.64154413 6.11889648 29.56347656 C5.44515991 28.89759521 5.44515991 28.89759521 4.7578125 28.21826172 C2.72974041 26.21094053 0.70553232 24.19976657 -1.31860352 22.18847656 C-2.0256543 21.48980469 -2.73270508 20.79113281 -3.46118164 20.07128906 C-4.1347168 19.40097656 -4.80825195 18.73066406 -5.50219727 18.04003906 C-6.12537842 17.42209473 -6.74855957 16.80415039 -7.390625 16.16748047 C-10.15274341 13.19497958 -10.23081119 10.54886027 -10.15063477 6.54003906 C-9.88110352 4.56347656 -9.88110352 4.56347656 -8.38110352 2.06347656 C-5.55681521 0.36890358 -3.30396115 -0.19228002 0 0 Z " fill="#72CDDC" transform="translate(79.881103515625,19.4365234375)"/>
<path d="M0 0 C8.41147866 4.98630591 13.83490414 11.4516566 16.75 20.80859375 C18.85259308 30.07314451 17.09446119 38.49512894 12.125 46.6015625 C7.32406228 52.79368103 -0.44890951 57.80327457 -8.16796875 59.3125 C-17.84937549 60.29757159 -27.08053451 60.85455604 -35.625 55.5625 C-37.2028125 54.69625 -37.2028125 54.69625 -38.8125 53.8125 C-44.64282903 49.14823677 -49.0510259 42.93394536 -50.625 35.5625 C-51.5960792 26.47211969 -50.14007639 18.79347997 -44.8125 11.3125 C-34.15225898 -1.88838815 -15.79686571 -7.32197873 0 0 Z " fill="#FAFAFA" transform="translate(185.625,81.4375)"/>
<path d="M0 0 C6.85358892 4.25807619 11.4549492 9.19230179 14 17 C14.90734476 27.41336367 14.92275778 37.17121622 8.59765625 45.9453125 C1.69950127 53.73736043 -8.13814983 57.50406059 -18.296875 58.23828125 C-28.86292832 58.46537968 -36.0153102 57.12265051 -43.875 49.8125 C-50.99893275 42.1851091 -53.51533253 33.58275997 -53.40234375 23.30078125 C-52.49311238 15.84155305 -48.75102104 9.25857055 -43.375 4.0625 C-31.15084691 -5.3300696 -13.67314359 -8.06939622 0 0 Z " fill="#FBFBFB" transform="translate(101,87)"/>
<path d="M0 0 C2.83930749 1.54066373 3.54713222 2.35194833 5.4375 5.1875 C5.5625 7.875 5.5625 7.875 5.4375 10.1875 C6.30375 10.414375 7.17 10.64125 8.0625 10.875 C12.75090303 12.69826785 16.14515906 15.16470548 18.875 19.4375 C19.71015706 23.52049007 19.57679867 27.16997313 18.4375 31.1875 C16.375 33.75 16.375 33.75 13.4375 35.1875 C10.75621797 35.3722941 8.12924305 35.25086754 5.4375 35.1875 C5.54191406 36.95867187 5.54191406 36.95867187 5.6484375 38.765625 C5.70472309 40.32285973 5.7593224 41.88015604 5.8125 43.4375 C5.86277344 44.21480469 5.91304687 44.99210937 5.96484375 45.79296875 C6.02313784 48.06643828 5.9894967 49.979233 5.4375 52.1875 C2.01934905 55.30489186 0.45869677 56.20510684 -4.1875 56.125 C-7.38041936 55.23807796 -9.15145937 54.40565738 -11.5625 52.1875 C-12.078125 52.6825 -12.59375 53.1775 -13.125 53.6875 C-16.51138329 55.77142818 -18.65635318 55.74552097 -22.5625 55.1875 C-26.30401532 51.64822875 -28.44081421 47.82402553 -28.6796875 42.6484375 C-28.68670343 40.15778266 -28.64949406 37.67649662 -28.5625 35.1875 C-29.325625 35.105 -30.08875 35.0225 -30.875 34.9375 C-34.13722221 34.02711241 -34.87359792 33.05863354 -36.5625 30.1875 C-37.8276153 26.39215409 -38.41582027 23.10028563 -37.5625 19.1875 C-35.08418264 15.13841812 -32.5257775 11.70562602 -27.82421875 10.46484375 C-27.07785156 10.37332031 -26.33148438 10.28179687 -25.5625 10.1875 C-25.52125 9.300625 -25.48 8.41375 -25.4375 7.5 C-24.22499778 2.90981303 -22.41501361 1.88425953 -18.5625 -0.8125 C-12.48438412 -2.83853863 -5.8175569 -2.79157492 0 0 Z " fill="#151718" transform="translate(138.5625,134.8125)"/>
<path d="M0 0 C6.23748473 1.65872967 10.82865441 8.32060087 14.76342773 13.05957031 C22.30093978 21.93630133 29.82144626 30.56622778 41.8894043 32.51708984 C52.40043175 33.05411614 59.29399679 30.19208718 66.98999023 23.27832031 C73.33776293 17.33160946 79.13347229 10.88112643 84.75 4.24731445 C87.82359556 0.76508876 88.31320602 0.6284516 92.99389648 0.25097656 C95.94858301 0.31007029 97.00948042 0.49782692 99.61889648 2.06347656 C101.30878979 4.87996541 101.8719685 7.13099464 101.68920898 10.42675781 C100.52681952 14.78173753 97.23218244 17.4744624 94.11889648 20.56347656 C92.94798462 21.73438843 92.94798462 21.73438843 91.75341797 22.92895508 C89.54191081 25.14046224 87.33040365 27.3519694 85.11889648 29.56347656 C86.30854004 29.57805908 87.49818359 29.5926416 88.72387695 29.60766602 C93.17843232 29.66606226 97.63250383 29.74328944 102.08666992 29.82592773 C104.00683686 29.85898402 105.92709645 29.88707468 107.84741211 29.90991211 C110.62320088 29.94381597 113.398155 29.99614565 116.17358398 30.05175781 C117.44140213 30.0613427 117.44140213 30.0613427 118.73483276 30.07112122 C128.05066816 30.29597201 135.95254008 32.48765266 143.11889648 38.56347656 C143.11889648 39.22347656 143.11889648 39.88347656 143.11889648 40.56347656 C143.77889648 40.56347656 144.43889648 40.56347656 145.11889648 40.56347656 C146.73999023 42.39941406 146.73999023 42.39941406 148.55639648 44.93847656 C149.15323242 45.75058594 149.75006836 46.56269531 150.36499023 47.39941406 C154.6485475 55.12698953 155.56347558 62.83531416 155.52294922 71.54589844 C155.52981247 72.59443497 155.53667572 73.6429715 155.54374695 74.72328186 C155.56192035 78.15973785 155.55819134 81.59573324 155.55249023 85.03222656 C155.55705607 87.43778632 155.56236284 89.84334478 155.56837463 92.24890137 C155.57728682 97.27878129 155.5749035 102.30850227 155.56494141 107.33837891 C155.5534456 113.76738579 155.57368298 120.19584391 155.60285854 126.62477875 C155.62124766 131.58863783 155.62092277 136.552366 155.61522102 141.51625061 C155.61506819 143.88599925 155.62108099 146.25575698 155.6335125 148.62547302 C155.64847409 151.9443459 155.63770707 155.26221221 155.62060547 158.58105469 C155.63510742 160.03240562 155.63510742 160.03240562 155.64990234 161.51307678 C155.57743516 168.26625352 154.01803213 173.4864098 151.11889648 179.56347656 C150.81306861 180.20625801 150.50724073 180.84903946 150.19214535 181.51129913 C149.52359346 182.87331758 148.82555153 184.22083197 148.11889648 185.56347656 C147.45889648 185.56347656 146.79889648 185.56347656 146.11889648 185.56347656 C145.89202148 186.14097656 145.66514648 186.71847656 145.43139648 187.31347656 C143.77041426 190.16087465 141.80365087 191.68414849 139.11889648 193.56347656 C138.45889648 193.56347656 137.79889648 193.56347656 137.11889648 193.56347656 C137.11889648 194.22347656 137.11889648 194.88347656 137.11889648 195.56347656 C129.05365053 198.9593696 121.73628501 198.87002398 113.11889648 198.56347656 C113.00416992 199.49546875 112.88944336 200.42746094 112.77124023 201.38769531 C111.93613503 205.45320748 110.22760003 206.90970524 107.11889648 209.56347656 C103.40875971 211.41854495 99.16796825 211.01682356 95.11889648 210.56347656 C91.78736819 208.89771242 89.84548558 207.62033343 87.74389648 204.56347656 C87.11889648 202.56347656 87.11889648 202.56347656 87.11889648 198.56347656 C59.72889648 198.56347656 32.33889648 198.56347656 4.11889648 198.56347656 C3.62389648 201.53347656 3.62389648 201.53347656 3.11889648 204.56347656 C-1.89196876 210.34524415 -1.89196876 210.34524415 -6.05297852 210.80175781 C-12.00804266 210.97319148 -15.37887488 210.59178639 -19.88110352 206.56347656 C-19.88110352 205.90347656 -19.88110352 205.24347656 -19.88110352 204.56347656 C-20.54110352 204.56347656 -21.20110352 204.56347656 -21.88110352 204.56347656 C-22.21110352 202.58347656 -22.54110352 200.60347656 -22.88110352 198.56347656 C-23.84790039 198.60988281 -24.81469727 198.65628906 -25.81079102 198.70410156 C-37.52654141 199.02889464 -45.45567148 197.43407987 -54.18969727 189.24707031 C-54.74786133 188.69148437 -55.30602539 188.13589844 -55.88110352 187.56347656 C-56.41864258 187.03882813 -56.95618164 186.51417969 -57.51000977 185.97363281 C-64.67612508 178.60335467 -65.33115789 167.28535102 -65.26928711 157.55932617 C-65.27454407 156.52039719 -65.27980103 155.4814682 -65.28521729 154.41105652 C-65.29830875 151.01248677 -65.28971833 147.61439396 -65.27954102 144.21582031 C-65.28156471 141.83411063 -65.28447861 139.45240155 -65.28823853 137.07069397 C-65.29264706 132.09386256 -65.28627759 127.11719333 -65.2722168 122.14038086 C-65.25511671 115.77985967 -65.26498101 109.4197181 -65.28293419 103.05921078 C-65.29380375 98.14597238 -65.29031126 93.23282315 -65.28255081 88.31958199 C-65.28055807 85.9749605 -65.28297534 83.63033076 -65.28998947 81.28571892 C-65.2976572 78.00300691 -65.2859254 74.7208997 -65.26928711 71.43823242 C-65.2753598 70.48158691 -65.2814325 69.52494141 -65.28768921 68.53930664 C-65.21130609 60.35353713 -63.93803988 52.17835828 -58.50610352 45.75097656 C-57.8912207 45.01878906 -57.27633789 44.28660156 -56.64282227 43.53222656 C-49.96856619 36.07363441 -43.74426792 31.27297986 -33.5480957 30.35296631 C-31.00183995 30.23947686 -28.46090284 30.18296608 -25.91235352 30.14941406 C-24.53098206 30.12036484 -24.53098206 30.12036484 -23.1217041 30.09072876 C-20.20826193 30.03141158 -17.29477921 29.98474068 -14.38110352 29.93847656 C-12.39410804 29.90025265 -10.40712835 29.86119841 -8.42016602 29.82128906 C-3.57394155 29.72574992 1.27236036 29.64154413 6.11889648 29.56347656 C5.44515991 28.89759521 5.44515991 28.89759521 4.7578125 28.21826172 C2.72974041 26.21094053 0.70553232 24.19976657 -1.31860352 22.18847656 C-2.0256543 21.48980469 -2.73270508 20.79113281 -3.46118164 20.07128906 C-4.1347168 19.40097656 -4.80825195 18.73066406 -5.50219727 18.04003906 C-6.12537842 17.42209473 -6.74855957 16.80415039 -7.390625 16.16748047 C-10.15274341 13.19497958 -10.23081119 10.54886027 -10.15063477 6.54003906 C-9.88110352 4.56347656 -9.88110352 4.56347656 -8.38110352 2.06347656 C-5.55681521 0.36890358 -3.30396115 -0.19228002 0 0 Z M-7.38110352 3.62597656 C-9.05818669 6.43337222 -9.05818669 6.43337222 -9.06860352 9.37597656 C-7.32569069 14.05432152 -4.3318306 17.02345155 -0.88110352 20.56347656 C-0.0909082 21.39234375 0.69928711 22.22121094 1.51342773 23.07519531 C4.73252073 26.40699756 4.73252073 26.40699756 8.11889648 29.56347656 C8.77889648 29.56347656 9.43889648 29.56347656 10.11889648 29.56347656 C10.11889648 30.55347656 10.11889648 31.54347656 10.11889648 32.56347656 C9.52722687 32.5523735 8.93555725 32.54127045 8.32595825 32.52983093 C2.1285116 32.41860652 -4.06864832 32.34354955 -10.2668457 32.28881836 C-12.57523123 32.26378339 -14.88353835 32.22974502 -17.19165039 32.1862793 C-20.52322817 32.12514283 -23.85375164 32.09715549 -27.18579102 32.07519531 C-28.20599335 32.04938889 -29.22619568 32.02358246 -30.27731323 31.99699402 C-39.13514199 31.99358146 -45.87665396 34.75577085 -52.56860352 40.56347656 C-61.82851599 50.59321549 -64.0329266 61.37926001 -64.02636719 74.50268555 C-64.0297258 75.47596802 -64.03308441 76.44925049 -64.0365448 77.45202637 C-64.04600784 80.65455416 -64.04799543 83.85702943 -64.04907227 87.05957031 C-64.05228755 89.2948458 -64.05565183 91.53012107 -64.05915833 93.76539612 C-64.06513759 98.44492073 -64.06699941 103.12442691 -64.06640625 107.80395508 C-64.06630458 113.79029104 -64.07996765 119.77650854 -64.09717846 125.76281643 C-64.10831311 130.37743164 -64.11032502 134.99201831 -64.10979652 139.60664558 C-64.11097401 141.81336946 -64.11538275 144.02009414 -64.12312889 146.22680473 C-64.13296035 149.31624469 -64.13003844 152.40542869 -64.12402344 155.49487305 C-64.12964294 156.39953812 -64.13526245 157.30420319 -64.14105225 158.23628235 C-64.10435491 165.67910063 -62.90662787 172.12476909 -59.44360352 178.81347656 C-59.03239258 179.62300781 -58.62118164 180.43253906 -58.19750977 181.26660156 C-56.89725661 183.53529253 -55.58699469 185.58009376 -53.88110352 187.56347656 C-53.22110352 187.56347656 -52.56110352 187.56347656 -51.88110352 187.56347656 C-51.55110352 188.55347656 -51.22110352 189.54347656 -50.88110352 190.56347656 C-49.89110352 190.56347656 -48.90110352 190.56347656 -47.88110352 190.56347656 C-47.88110352 191.22347656 -47.88110352 191.88347656 -47.88110352 192.56347656 C-46.65603453 193.21704934 -45.42580836 193.86095889 -44.19360352 194.50097656 C-43.16686523 195.04044922 -43.16686523 195.04044922 -42.11938477 195.59082031 C-37.31539445 197.6784182 -32.75819463 197.67447741 -27.56860352 197.62597656 C-25.6872168 197.61244141 -25.6872168 197.61244141 -23.76782227 197.59863281 C-22.81520508 197.58703125 -21.86258789 197.57542969 -20.88110352 197.56347656 C-20.76508789 198.49546875 -20.64907227 199.42746094 -20.52954102 200.38769531 C-19.69518186 204.47404465 -18.04118154 205.93007821 -14.88110352 208.56347656 C-11.22822159 209.78110387 -8.72356216 209.95423507 -4.88110352 209.56347656 C0.33595238 206.21668599 1.07933862 204.68215016 3.11889648 198.56347656 C31.16889648 198.23347656 59.21889648 197.90347656 88.11889648 197.56347656 C88.44889648 199.54347656 88.77889648 201.52347656 89.11889648 203.56347656 C91.3912551 206.76453826 94.32881837 209.03801332 98.11499023 210.14941406 C102.2503639 210.48798267 104.79156909 209.46220817 108.05639648 206.93847656 C111.26652994 204.1743981 111.66028339 201.70841014 112.11889648 197.56347656 C112.95291992 197.59828125 113.78694336 197.63308594 114.64624023 197.66894531 C125.87770087 197.93911791 134.45366689 196.04060338 143.11889648 188.56347656 C155.23115364 175.376167 154.72266747 159.44182268 154.65014648 142.65722656 C154.65284685 140.44250316 154.65673379 138.22778091 154.66174316 136.01306152 C154.66761253 131.39026509 154.6591581 126.76777958 154.64038086 122.14501953 C154.61759326 116.25106804 154.63073012 110.35784542 154.65467072 104.46392059 C154.66919808 99.89624648 154.66449098 95.32874215 154.65415955 90.76106262 C154.65151141 88.58917655 154.6546938 86.41727452 154.66407776 84.2454071 C154.71928252 67.88168334 154.18050265 53.05541619 142.20092773 40.56347656 C134.53704923 33.44807679 128.14661564 32.11455144 117.93530273 32.27050781 C116.87979721 32.27475266 115.82429169 32.2789975 114.73680115 32.28337097 C111.38473377 32.30008607 108.03328038 32.33772568 104.68139648 32.37597656 C102.40080624 32.39103263 100.12020653 32.40471942 97.83959961 32.41699219 C92.26582446 32.44996607 86.69240436 32.50009388 81.11889648 32.56347656 C81.11889648 31.57347656 81.11889648 30.58347656 81.11889648 29.56347656 C82.43889648 28.90347656 83.75889648 28.24347656 85.11889648 27.56347656 C85.11889648 26.90347656 85.11889648 26.24347656 85.11889648 25.56347656 C86.10889648 25.23347656 87.09889648 24.90347656 88.11889648 24.56347656 C89.60518791 23.10112594 89.60518791 23.10112594 90.99389648 21.31347656 C93.55757937 18.20636963 96.23051416 15.36933368 99.11889648 12.56347656 C100.35418167 11.52922747 100.35418167 11.52922747 100.43139648 9.31347656 C99.99985053 5.5158722 99.02884199 4.03693024 96.11889648 1.56347656 C90.11547834 1.53553721 87.1783536 2.70446475 82.94348145 6.89451599 C82.37230591 7.49554642 81.80113037 8.09657684 81.21264648 8.71582031 C80.29739197 9.63881676 80.29739197 9.63881676 79.36364746 10.58045959 C78.08499431 11.87618075 76.81470393 13.18020262 75.55249023 14.49194336 C73.61300939 16.50709335 71.65008817 18.49681401 69.68139648 20.48339844 C68.4403934 21.74697958 67.20075964 23.01190736 65.96264648 24.27832031 C65.3752771 24.87732651 64.78790771 25.4763327 64.18273926 26.0934906 C61.13649474 28.84524423 61.13649474 28.84524423 60.11889648 32.56347656 C50.24889369 34.21486077 37.9873772 35.90658634 29.05548096 30.25872803 C22.51449488 25.22478077 17.0042736 19.09981181 11.57714844 12.91625977 C10.99430588 12.25475418 10.41146332 11.5932486 9.81095886 10.91169739 C8.71682461 9.65014064 7.64260659 8.37092968 6.59272766 7.0723114 C3.87591232 3.85559059 2.5963907 2.69562279 -1.6003418 1.53417969 C-4.99944535 1.22031595 -4.99944535 1.22031595 -7.38110352 3.62597656 Z " fill="#8FAEB3" transform="translate(79.881103515625,19.4365234375)"/>
<path d="M0 0 C1.8703325 1.00196384 3.73962954 2.00594997 5.6015625 3.0234375 C11.08095639 5.25446107 17.26896811 4.91286919 22.81640625 3.05859375 C24.48116456 2.34654362 26.12824937 1.59037214 27.74609375 0.77734375 C30.6385535 -0.22022902 32.11287215 0.02701518 35 1 C37.203125 2.55859375 37.203125 2.55859375 39.25 4.4375 C39.93578125 5.05496094 40.6215625 5.67242187 41.328125 6.30859375 C43.53291977 8.53914547 43.95714782 9.67860868 44.375 12.8125 C44 16 44 16 42 18.875 C38.87203201 21.09064399 37.00037793 21.66468779 33.17578125 21.44140625 C29.91617763 20.78012221 27.13577498 19.33541071 24.15234375 17.90234375 C19.36964467 15.89725575 15.41259922 16.77219284 10.75 18.5 C5.68377572 20.31931422 0.31771506 21.10713084 -5 20 C-7.05337461 17.99583481 -7.87498699 16.62957005 -8.43359375 13.81640625 C-8.44050451 9.82889961 -8.33389362 7.56046429 -6.25 4.0625 C-4.13391217 2.12275283 -2.67633638 0.97092654 0 0 Z " fill="#F2D0A2" transform="translate(112,147)"/>
<path d="M0 0 C0.33 0 0.66 0 1 0 C1.00808685 1.22251465 1.01617371 2.4450293 1.02450562 3.70458984 C1.10207397 15.23964748 1.18984029 26.77458871 1.28752708 38.30949402 C1.33741978 44.23934603 1.38375052 50.16918082 1.421875 56.09912109 C1.45881642 61.82449256 1.50520056 67.54971756 1.55806351 73.27496338 C1.57656039 75.45653711 1.59168562 77.63814219 1.60334396 79.81976318 C1.62028694 82.88129596 1.64934156 85.94249674 1.68115234 89.00390625 C1.68331253 89.90086716 1.68547272 90.79782806 1.68769836 91.7219696 C1.78595962 99.15086622 2.98253455 105.60113238 6.5 112.25 C6.9228125 113.05953125 7.345625 113.8690625 7.78125 114.703125 C8.38453125 115.84007812 8.38453125 115.84007812 9 117 C9.67028738 118.33151682 10.33823977 119.66422471 11 121 C11.66 121 12.32 121 13 121 C13.33 121.66 13.66 122.32 14 123 C14.99 123.33 15.98 123.66 17 124 C17 124.66 17 125.32 17 126 C18.99508067 126.68124706 20.99638693 127.34427209 23 128 C23.99 128.350625 24.98 128.70125 26 129.0625 C31.79949128 130.73264828 38.00890538 130.68424189 44 131 C44.433125 132.093125 44.86625 133.18625 45.3125 134.3125 C46.50679099 137.08796498 47.53105649 139.14829237 50 141 C53.60572704 142.20190901 56.2102435 142.32670315 60 142 C65.18451475 139.05425298 65.45068816 136.94839429 68 131 C96.05 131 124.1 131 153 131 C153.99 133.31 154.98 135.62 156 138 C158.96362407 141.30232396 160.51074319 141.93010617 164.9375 142.5625 C169.5302729 142.31072228 171.90559331 140.38911209 175 137 C175.72475198 135.02030835 176.40089858 133.02126741 177 131 C178.75763672 130.88785156 178.75763672 130.88785156 180.55078125 130.7734375 C190.92482785 129.96676366 200.19385203 128.9161592 207.85546875 121.109375 C209.42390664 119.14205044 210.73343057 117.17243301 212 115 C212.38800781 114.33742188 212.77601563 113.67484375 213.17578125 112.9921875 C217.34238785 105.26502618 218.29780636 97.74146998 218.31884766 89.09570312 C218.32889328 88.138685 218.3389389 87.18166687 218.34928894 86.19564819 C218.37998271 83.05752113 218.39711759 79.91947883 218.4140625 76.78125 C218.43278525 74.59549233 218.45235948 72.4097418 218.4727478 70.22399902 C218.52395793 64.48991111 218.56364312 58.75579979 218.60089111 53.02160645 C218.64100056 47.16278344 218.6920612 41.30405686 218.7421875 35.4453125 C218.83881511 23.96360952 218.92326192 12.48185194 219 1 C219.33 1 219.66 1 220 1 C220.09285522 14.12638019 220.16384396 27.25268169 220.20724869 40.37932396 C220.22808529 46.47516899 220.25633154 52.57078859 220.30175781 58.66650391 C220.34535506 64.55391264 220.36916663 70.44110511 220.37950897 76.32866287 C220.38687541 78.57004829 220.40126018 80.81142244 220.42292023 83.0527153 C220.45213816 86.20255467 220.45594826 89.35151084 220.45410156 92.50146484 C220.46848267 93.41928741 220.48286377 94.33710999 220.49768066 95.28274536 C220.44187951 104.13182752 217.05680428 111.29207186 213 119 C212.34 119 211.68 119 211 119 C210.6596875 119.86625 210.6596875 119.86625 210.3125 120.75 C208.65151778 123.59739809 206.68475439 125.12067193 204 127 C203.34 127 202.68 127 202 127 C202 127.66 202 128.32 202 129 C193.93475404 132.39589303 186.61738853 132.30654742 178 132 C177.88527344 132.93199219 177.77054688 133.86398438 177.65234375 134.82421875 C176.81723854 138.88973092 175.10870355 140.34622868 172 143 C168.28986322 144.85506839 164.04907177 144.45334699 160 144 C156.66847171 142.33423586 154.7265891 141.05685687 152.625 138 C152 136 152 136 152 132 C124.61 132 97.22 132 69 132 C68.505 134.97 68.505 134.97 68 138 C62.98913476 143.78176759 62.98913476 143.78176759 58.828125 144.23828125 C52.87306085 144.40971491 49.50222863 144.02830983 45 140 C45 139.34 45 138.68 45 138 C44.34 138 43.68 138 43 138 C42.67 136.02 42.34 134.04 42 132 C41.03320312 132.04640625 40.06640625 132.0928125 39.0703125 132.140625 C27.35456211 132.46541808 19.42543203 130.8706033 10.69140625 122.68359375 C9.85416016 121.85021484 9.85416016 121.85021484 9 121 C8.46246094 120.47535156 7.92492187 119.95070313 7.37109375 119.41015625 C0.30610762 112.14388846 -0.45392228 100.99537145 -0.34057617 91.38793945 C-0.34101425 90.39146896 -0.34145233 89.39499847 -0.34190369 88.36833191 C-0.33983495 85.11644003 -0.31659509 81.86508163 -0.29296875 78.61328125 C-0.28736598 76.34214052 -0.2830991 74.07099613 -0.28010559 71.79985046 C-0.26871051 65.85358479 -0.23928961 59.90754273 -0.20599365 53.96136475 C-0.17517724 47.88117496 -0.16157561 41.80094867 -0.14648438 35.72070312 C-0.11441452 23.81370442 -0.06328328 11.90687089 0 0 Z " fill="#728D92" transform="translate(15,86)"/>
<path d="M0 0 C6.54577155 5.54287739 10.50897052 11.6201444 12.18359375 20.1328125 C12.913456 31.27841728 11.19676918 39.31808742 4.18359375 48.1328125 C-3.19284593 55.77994722 -12.11893003 60.25327599 -22.86791992 60.5637207 C-32.77714948 60.59430125 -41.06647849 58.96100341 -49.19140625 52.8203125 C-57.63012863 44.18066816 -60.24132086 36.51525921 -60.25683594 24.56347656 C-60.04693439 15.78195929 -56.51680628 9.67425516 -50.81640625 3.1328125 C-35.84289337 -8.75863209 -16.24279998 -10.76845824 0 0 Z M-51.81640625 8.1328125 C-57.0247907 15.84479806 -59.22682677 22.87309517 -57.81640625 32.1328125 C-55.58314853 41.88862255 -50.21168561 49.6042139 -41.81640625 55.1328125 C-33.11551653 59.56235636 -22.33051207 59.45210848 -12.96484375 56.9453125 C-3.50913879 53.36933681 3.19108375 47.44210444 8.12109375 38.6953125 C10.55423297 31.04613107 10.96189563 19.6904417 7.43359375 12.3828125 C6.69109375 11.3103125 5.94859375 10.2378125 5.18359375 9.1328125 C4.58546875 8.2459375 3.98734375 7.3590625 3.37109375 6.4453125 C-3.5083328 -0.82722414 -10.92483942 -3.8595192 -20.90698242 -4.32275391 C-32.86798022 -4.56194758 -43.93191774 -1.43370023 -51.81640625 8.1328125 Z " fill="#2B3237" transform="translate(105.81640625,86.8671875)"/>
<path d="M0 0 C0.69351563 0.4125 1.38703125 0.825 2.1015625 1.25 C3.17277344 1.86875 3.17277344 1.86875 4.265625 2.5 C10.98093397 6.92657071 14.40028115 13.22878953 17.4765625 20.5 C19.34473263 31.70902076 18.7734917 40.76072254 12.1015625 50.25 C9.65258767 52.92119662 7.1607044 55.29325158 4.1015625 57.25 C3.4415625 57.25 2.7815625 57.25 2.1015625 57.25 C2.1015625 57.91 2.1015625 58.57 2.1015625 59.25 C-9.11371566 64.17592609 -22.06224683 65.45569628 -33.8984375 61.8125 C-42.1191952 58.20801393 -49.49617057 51.60981482 -53.11328125 43.3125 C-55.39639016 34.40723937 -55.59735782 24.35623202 -51.3359375 16.0625 C-40.5127935 -0.45038092 -18.66028989 -9.23395788 0 0 Z M-34.8984375 3.25 C-36.4453125 4.11625 -36.4453125 4.11625 -38.0234375 5 C-45.15062776 10.57780107 -50.36201469 17.19178551 -51.8984375 26.25 C-52.72140209 35.03278599 -51.45372617 42.29618546 -46.25 49.546875 C-43.19420637 53.2031521 -40.27093389 56.22372119 -35.8984375 58.25 C-34.8053125 58.806875 -33.7121875 59.36375 -32.5859375 59.9375 C-24.46415779 62.85578206 -12.93416003 62.55483813 -4.98046875 59.28515625 C-4.29339844 58.94355469 -3.60632813 58.60195312 -2.8984375 58.25 C-2.05667969 57.83621094 -1.21492188 57.42242187 -0.34765625 56.99609375 C7.19943003 52.89271499 11.89500385 47.92681454 14.9765625 39.875 C17.55704688 30.85103068 16.4714433 22.54096302 12.1015625 14.25 C7.00760803 6.83100407 0.98536594 1.3471256 -7.8984375 -0.75 C-17.26922559 -1.8965998 -26.74995799 -2.01179843 -34.8984375 3.25 Z " fill="#202428" transform="translate(186.8984375,79.75)"/>
<path d="M0 0 C3.375 2.125 3.375 2.125 4.375 4.125 C4.84187697 10.54455836 4.84187697 10.54455836 3.07421875 12.7421875 C-2.49162851 17.27163562 -8.95284808 17.58651739 -15.8359375 17.4296875 C-19.44101713 17.03585527 -21.63021051 16.12152633 -24.625 14.125 C-25.53799937 5.41769117 -25.53799937 5.41769117 -23.39453125 2.3828125 C-16.81499766 -3.10825504 -7.63307066 -3.71301267 0 0 Z " fill="#060506" transform="translate(138.625,134.875)"/>
<path d="M0 0 C2.97672584 1.77280561 5.42804007 3.85608015 7 7 C7.50872093 13.10465114 7.06705978 16.11952826 3 21 C-0.7373856 23.4915904 -2.57331583 23.45793285 -7 23 C-10.40850414 20.87915298 -12.81386655 18.8818913 -14 15 C-14.7557317 8.30637636 -14.7557317 8.30637636 -12.94921875 5.18359375 C-8.92765465 0.26044005 -6.2904603 -0.62904603 0 0 Z " fill="#0E0E0E" transform="translate(68,104)"/>
<path d="M0 0 C3.03522895 1.63435405 5.28352297 3.055553 7.375 5.8125 C8.73537221 10.57380273 8.56878187 13.92337717 6.25 18.3125 C3.23987313 21.90792932 1.6634068 22.7876502 -2.9375 23.375 C-6.76140355 22.90676691 -8.26689357 21.65718681 -11 19 C-13.46986894 15.29519659 -13.67432448 12.29780299 -13 8 C-9.80236302 2.04577942 -6.94083476 -0.81656879 0 0 Z " fill="#0F0F0F" transform="translate(154,101)"/>
<path d="M0 0 C0.33 0 0.66 0 1 0 C1.00808685 1.22251465 1.01617371 2.4450293 1.02450562 3.70458984 C1.10207397 15.23964748 1.18984029 26.77458871 1.28752708 38.30949402 C1.33741978 44.23934603 1.38375052 50.16918082 1.421875 56.09912109 C1.45881642 61.82449256 1.50520056 67.54971756 1.55806351 73.27496338 C1.57656039 75.45653711 1.59168562 77.63814219 1.60334396 79.81976318 C1.62028694 82.88129596 1.64934156 85.94249674 1.68115234 89.00390625 C1.68331253 89.90086716 1.68547272 90.79782806 1.68769836 91.7219696 C1.78595962 99.15086622 2.98253455 105.60113238 6.5 112.25 C6.9228125 113.05953125 7.345625 113.8690625 7.78125 114.703125 C8.38453125 115.84007812 8.38453125 115.84007812 9 117 C9.67028738 118.33151682 10.33823977 119.66422471 11 121 C11.66 121 12.32 121 13 121 C13.33 121.66 13.66 122.32 14 123 C14.99 123.33 15.98 123.66 17 124 C17 124.66 17 125.32 17 126 C18.99508067 126.68124706 20.99638693 127.34427209 23 128 C23.99 128.350625 24.98 128.70125 26 129.0625 C31.79949128 130.73264828 38.00890538 130.68424189 44 131 C44.433125 132.093125 44.86625 133.18625 45.3125 134.3125 C46.50679099 137.08796498 47.53105649 139.14829237 50 141 C53.60572704 142.20190901 56.2102435 142.32670315 60 142 C64.81284225 139.26543054 66.17560945 135.99306887 68 131 C68.33 131 68.66 131 69 131 C68.74385063 135.35453922 68.42722153 137.49609768 65.5625 140.875 C61.47247549 144.26672765 58.74686621 144.33059323 53.5546875 144.29296875 C49.70193321 143.85113913 47.86786837 142.56598749 45 140 C45 139.34 45 138.68 45 138 C44.34 138 43.68 138 43 138 C42.67 136.02 42.34 134.04 42 132 C41.03320312 132.04640625 40.06640625 132.0928125 39.0703125 132.140625 C27.35456211 132.46541808 19.42543203 130.8706033 10.69140625 122.68359375 C9.85416016 121.85021484 9.85416016 121.85021484 9 121 C8.46246094 120.47535156 7.92492187 119.95070313 7.37109375 119.41015625 C0.30610762 112.14388846 -0.45392228 100.99537145 -0.34057617 91.38793945 C-0.34101425 90.39146896 -0.34145233 89.39499847 -0.34190369 88.36833191 C-0.33983495 85.11644003 -0.31659509 81.86508163 -0.29296875 78.61328125 C-0.28736598 76.34214052 -0.2830991 74.07099613 -0.28010559 71.79985046 C-0.26871051 65.85358479 -0.23928961 59.90754273 -0.20599365 53.96136475 C-0.17517724 47.88117496 -0.16157561 41.80094867 -0.14648438 35.72070312 C-0.11441452 23.81370442 -0.06328328 11.90687089 0 0 Z " fill="#699098" transform="translate(15,86)"/>
<path d="M0 0 C8.35294118 0.9638009 8.35294118 0.9638009 11 3 C11.92339009 6.53243188 12.21717181 9.98245984 12.3125 13.625 C12.34988281 14.56601563 12.38726562 15.50703125 12.42578125 16.4765625 C12 19 12 19 10.20703125 20.84375 C6.87447678 22.58965464 4.55592828 21.92190733 1 21 C-1.42161179 17.36758231 -1.26331995 14.69004984 -1.1875 10.5 C-1.18685547 9.82324219 -1.18621094 9.14648438 -1.18554688 8.44921875 C-1.15821603 5.36994397 -0.98032509 2.94097526 0 0 Z " fill="#F6F7F6" transform="translate(130,166)"/>
<path d="M0 0 C0.13510253 2.91821463 0.2341305 5.83017652 0.3125 8.75 C0.3753418 9.9875 0.3753418 9.9875 0.43945312 11.25 C0.56313394 17.38456838 0.56313394 17.38456838 -2.35546875 20.57421875 C-5 22 -5 22 -7.625 22.0625 C-10.82671278 20.63015481 -11.48767278 19.13732065 -13 16 C-13.29296875 12.88671875 -13.29296875 12.88671875 -13.1875 9.6875 C-13.16042969 8.61886719 -13.13335937 7.55023438 -13.10546875 6.44921875 C-13.07066406 5.64097656 -13.03585938 4.83273438 -13 4 C-11.02144235 3.33152803 -9.04213695 2.66526889 -7.0625 2 C-5.96035156 1.62875 -4.85820313 1.2575 -3.72265625 0.875 C-1 0 -1 0 0 0 Z " fill="#F9F9F9" transform="translate(126,166)"/>
<path d="M0 0 C0.66 1.32 1.32 2.64 2 4 C-0.34120524 7.51180785 -2.29381631 8.14690815 -6 10 C-8.08133467 13.122002 -8.2737822 13.93266989 -8.25 17.5 C-8.25515625 18.2734375 -8.2603125 19.046875 -8.265625 19.84375 C-8.12738062 22.29513844 -8.12738062 22.29513844 -6 25 C-3.47305748 25.44144243 -3.47305748 25.44144243 -0.625 25.3125 C0.33148438 25.30863281 1.28796875 25.30476563 2.2734375 25.30078125 C5.03290498 24.99637008 6.57145656 24.25424774 9 23 C10.32 23 11.64 23 13 23 C12.67 23.99 12.34 24.98 12 26 C9.27734375 26.94921875 9.27734375 26.94921875 5.9375 27.6875 C4.83277344 27.93886719 3.72804688 28.19023437 2.58984375 28.44921875 C1.73519531 28.63097656 0.88054687 28.81273437 0 29 C0 32.3 0 35.6 0 39 C-0.99 39 -1.98 39 -3 39 C-3 35.7 -3 32.4 -3 29 C-3.763125 28.9175 -4.52625 28.835 -5.3125 28.75 C-8.57472221 27.83961241 -9.31109792 26.87113354 -11 24 C-12.2651153 20.20465409 -12.85332027 16.91278563 -12 13 C-9.52168264 8.95091812 -6.9632775 5.51812602 -2.26171875 4.27734375 C-1.51535156 4.18582031 -0.76898438 4.09429687 0 4 C0 2.68 0 1.36 0 0 Z " fill="#363532" transform="translate(113,141)"/>
<path d="M0 0 C0.33 0 0.66 0 1 0 C1 1.65 1 3.3 1 5 C1.86625 5.226875 2.7325 5.45375 3.625 5.6875 C8.31340303 7.51076785 11.70765906 9.97720548 14.4375 14.25 C15.27265706 18.33299007 15.13929867 21.98247313 14 26 C11.80507247 28.72703117 10.40285871 29.8467247 6.890625 30.23046875 C4.92565829 30.24788867 2.96054339 30.1329182 1 30 C1 31.65 1 33.3 1 35 C-0.485 34.505 -0.485 34.505 -2 34 C-2.33 32.35 -2.66 30.7 -3 29 C-6.3 28.01 -9.6 27.02 -13 26 C-13.33 26.99 -13.66 27.98 -14 29 C-14 27.68 -14 26.36 -14 25 C-14.66 25 -15.32 25 -16 25 C-16 24.34 -16 23.68 -16 23 C-11.45840252 22.61348107 -8.67208235 22.97374759 -4.5625 25 C-0.02590565 27.167656 2.99172654 27.67908793 8 27 C10.62716577 25.54002013 10.62716577 25.54002013 12 23 C12.79713425 18.92575828 12.24652726 17.38519885 10 13.875 C6.92418278 10.5066699 3.15175582 8.75136102 -1 7 C-0.67 4.69 -0.34 2.38 0 0 Z " fill="#323936" transform="translate(143,140)"/>
<path d="M0 0 C1.03253906 0.01353516 1.03253906 0.01353516 2.0859375 0.02734375 C3.76577838 0.05067487 5.44543746 0.08653674 7.125 0.125 C7.125 0.455 7.125 0.785 7.125 1.125 C5.92617187 1.25455078 5.92617187 1.25455078 4.703125 1.38671875 C-5.96673479 2.7517595 -17.77125103 5.35404464 -24.875 14.125 C-31.31929036 23.32275987 -31.84931614 32.2864115 -31.875 43.125 C-35.17746329 39.82253671 -34.30982797 35.24570118 -34.31542969 30.79980469 C-34.10922484 21.91050134 -30.68436552 15.74180441 -24.875 9.125 C-22.2890625 7.17578125 -22.2890625 7.17578125 -19.5 5.4375 C-18.58476563 4.85613281 -17.66953125 4.27476563 -16.7265625 3.67578125 C-11.11698086 0.62509096 -6.32743408 -0.1594121 0 0 Z " fill="#10171A" transform="translate(79.875,80.875)"/>
<path d="M0 0 C2.14411859 0.5558826 4.27366114 1.17455371 6.375 1.875 C5.446875 2.390625 4.51875 2.90625 3.5625 3.4375 C0.62652797 5.34690838 0.32570695 5.99412487 -1.125 9.5 C-2.625 12.875 -2.625 12.875 -5.375 14.5 C-9.73247668 15.00278577 -11.76815793 13.88055787 -15.625 11.875 C-15.625 12.865 -15.625 13.855 -15.625 14.875 C-16.285 14.545 -16.945 14.215 -17.625 13.875 C-17.625 12.885 -17.625 11.895 -17.625 10.875 C-15.83203125 9.4453125 -15.83203125 9.4453125 -13.4375 8 C-10.39120288 6.10378697 -8.42577295 4.65205544 -6 1.9375 C-3.625 -0.125 -3.625 -0.125 0 0 Z " fill="#75C8D7" transform="translate(115.625,132.125)"/>
<path d="M0 0 C2.5 1.5 2.5 1.5 4 4 C4.75359756 8.11053216 5.00055086 10.42459849 2.7421875 13.98046875 C0.92088453 16.10249849 -0.99544208 18.04991376 -3 20 C-3.8146875 20.82628906 -4.629375 21.65257813 -5.46875 22.50390625 C-7.62858248 24.68766093 -9.80594276 26.85071943 -12 29 C-12.66 28.67 -13.32 28.34 -14 28 C-10.11930981 23.3526081 -6.21858852 19.10820914 -1.48046875 15.32421875 C0.78735192 13.29574591 1.9248428 11.58622613 2.3125 8.5625 C1.94562859 5.55415446 0.98814576 4.23666399 -1 2 C-8.14744386 2.22250184 -11.08477151 4.09620114 -15.90625 9.22265625 C-16.51641968 9.84273056 -17.12658936 10.46280487 -17.75524902 11.10166931 C-19.68731707 13.07270935 -21.5935287 15.06672304 -23.5 17.0625 C-24.81086236 18.40849788 -26.12334714 19.75291771 -27.4375 21.09570312 C-30.64406723 24.37916738 -33.82767751 27.68345222 -37 31 C-37 27.1736928 -35.53549904 26.18457307 -32.9347229 23.56918335 C-32.058246 22.71122665 -32.058246 22.71122665 -31.1640625 21.8359375 C-30.56951263 21.2432608 -29.97496277 20.65058411 -29.36239624 20.03994751 C-28.10315924 18.78743723 -26.84032757 17.53853219 -25.57421875 16.29296875 C-23.6328259 14.38270043 -21.70227851 12.46199588 -19.7734375 10.5390625 C-18.55009946 9.32489554 -17.32616099 8.11133317 -16.1015625 6.8984375 C-15.52129303 6.32241791 -14.94102356 5.74639832 -14.34317017 5.15292358 C-9.65876259 0.5517967 -6.65378297 -0.90733404 0 0 Z " fill="#96A4A7" transform="translate(177,20)"/>
<path d="M0 0 C2.97864057 -0.27265622 4.49459594 -0.36820855 6.95703125 1.42578125 C7.56933594 2.04839844 8.18164062 2.67101562 8.8125 3.3125 C12.6696259 6.94187179 15.95772017 8.46930791 21 10 C19.68 11.32 18.36 12.64 17 14 C18.32 14.66 19.64 15.32 21 16 C20.34 16.33 19.68 16.66 19 17 C19 17.99 19 18.98 19 20 C9.469654 15.04140669 9.469654 15.04140669 7.5625 10.8125 C7.376875 9.884375 7.19125 8.95625 7 8 C4.83924737 5.1189965 2.35447625 4.17859976 -1 3 C-0.67 2.01 -0.34 1.02 0 0 Z " fill="#73C5D3" transform="translate(135,131)"/>
<path d="M0 0 C2.66795354 2.46272635 4.78466241 5.05152382 6.875 8 C11.25508877 13.90216962 16.89219808 17.17761511 24 19 C28.01028502 19.34460659 31.97887123 19.28563769 36 19.1875 C37.06089844 19.17396484 38.12179688 19.16042969 39.21484375 19.14648438 C41.81043687 19.11140879 44.40494067 19.06225844 47 19 C43.19871326 22.80128674 38.56612671 22.27169413 33.5 22.3125 C21.51743351 22.30178427 14.02890187 19.62395854 5.09375 11.4140625 C2.04464698 7.89849223 0 4.71772639 0 0 Z " fill="#131A1C" transform="translate(135,121)"/>
<path d="M0 0 C10.17908194 -0.95230496 20.38285002 1.1614875 28.88671875 6.97265625 C32.32058029 9.93097497 35.41850638 12.6574457 37 17 C36.505 18.485 36.505 18.485 36 20 C35.64808594 19.48050781 35.29617187 18.96101563 34.93359375 18.42578125 C29.41219007 10.62661836 23.45821185 6.01568449 14 4 C9.67137903 3.49735292 5.35265597 3.19509586 1 3 C0.67 2.01 0.34 1.02 0 0 Z " fill="#202426" transform="translate(77,80)"/>
<path d="M0 0 C0.33 0 0.66 0 1 0 C1.99226043 7.27657647 -1.1190055 12.96652116 -5 19 C-7.43458296 21.68705823 -9.93978237 24.0425635 -13 26 C-13.66 26 -14.32 26 -15 26 C-15 26.66 -15 27.32 -15 28 C-21.4 30.21538462 -21.4 30.21538462 -24.4375 29.125 C-24.953125 28.75375 -25.46875 28.3825 -26 28 C-25.21625 27.79375 -24.4325 27.5875 -23.625 27.375 C-14.66436125 23.97613702 -8.3205554 19.73239014 -4 11 C-3.1403271 8.66790862 -2.57175191 6.42994563 -2 4 C-1.37530495 2.64649406 -0.7283669 1.30065517 0 0 Z " fill="#161D24" transform="translate(204,111)"/>
<path d="M0 0 C4.1017221 4.1017221 4.15295106 9.46821027 4.25 15 C4.07141131 23.4461946 1.67997914 29.12293141 -3 36 C-3.66 35.34 -4.32 34.68 -5 34 C-3.99088542 32.30729167 -2.98177083 30.61458333 -1.97265625 28.921875 C0.364104 24.30466197 0.15083016 19.57132181 0.125 14.5 C0.12886719 13.74074219 0.13273437 12.98148438 0.13671875 12.19921875 C0.15296691 7.99618207 0.15296691 7.99618207 -0.57080078 3.87695312 C-1 2 -1 2 0 0 Z " fill="#1E2A2E" transform="translate(114,98)"/>
<path d="M0 0 C0.66 0.99 1.32 1.98 2 3 C0.99088542 4.66015625 -0.01822917 6.3203125 -1.02734375 7.98046875 C-2.9756819 12.02581343 -3.13744887 16.06820163 -3.125 20.5 C-3.12757813 21.4178125 -3.13015625 22.335625 -3.1328125 23.28125 C-3.00244035 25.95004454 -2.59378606 28.39865153 -2 31 C-2.99 31 -3.98 31 -5 31 C-7.67200087 25.65599827 -6.78070986 16.86357536 -6 11 C-4.49396495 6.91219058 -2.58722285 3.49583087 0 0 Z " fill="#151C21" transform="translate(139,91)"/>
<path d="M0 0 C0.33 0 0.66 0 1 0 C2.30403864 5.86817387 2.88692901 12.03881366 2 18 C-0.5625 20.8125 -0.5625 20.8125 -4 22 C-10.20689655 21.79310345 -10.20689655 21.79310345 -13 19 C-12.625 16.875 -12.625 16.875 -12 15 C-11.67 15.99 -11.34 16.98 -11 18 C-5.67829506 18.29562367 -5.67829506 18.29562367 -1 16 C-0.61605333 13.22737745 -0.39657752 10.65676472 -0.3125 7.875 C-0.27833984 7.12089844 -0.24417969 6.36679688 -0.20898438 5.58984375 C-0.12645722 3.72708799 -0.06155289 1.86356674 0 0 Z " fill="#0E1619" transform="translate(142,169)"/>
<path d="M0 0 C0.66 0 1.32 0 2 0 C-0.40413254 6.11961009 -6.33016635 9.21438608 -12 12 C-18.52705782 14.61082313 -25.08558688 14.18715705 -32 14 C-32 13.67 -32 13.34 -32 13 C-30.98421875 12.85304687 -29.9684375 12.70609375 -28.921875 12.5546875 C-17.83506301 10.80463612 -8.13747847 8.19054898 0 0 Z " fill="#1F2A2E" transform="translate(108,133)"/>
<path d="M0 0 C0.99 0 1.98 0 3 0 C4.68027247 11.1318051 5.52549276 23.21176086 -1 33 C-1.99 32.67 -2.98 32.34 -4 32 C-3.45859375 31.05253906 -3.45859375 31.05253906 -2.90625 30.0859375 C2.15496767 20.32903454 2.02694564 10.64146461 0 0 Z " fill="#76C5CD" transform="translate(203,97)"/>
<path d="M0 0 C-0.33 0.99 -0.66 1.98 -1 3 C-3.72265625 3.94921875 -3.72265625 3.94921875 -7.0625 4.6875 C-8.16722656 4.93886719 -9.27195312 5.19023437 -10.41015625 5.44921875 C-11.69212891 5.72185547 -11.69212891 5.72185547 -13 6 C-13 9.3 -13 12.6 -13 16 C-13.99 16 -14.98 16 -16 16 C-16 12.7 -16 9.4 -16 6 C-16.99 5.67 -17.98 5.34 -19 5 C-16.62124245 2.62124245 -15.87533968 2.71596941 -12.625 2.5 C-10.04047635 2.32712216 -8.28432816 2.14379815 -5.9609375 0.96875 C-4 0 -4 0 0 0 Z " fill="#3F4241" transform="translate(126,164)"/>
<path d="M0 0 C2.11786295 0.59939517 4.22440128 1.24146709 6.3125 1.9375 C5.384375 2.453125 4.45625 2.96875 3.5 3.5 C-0.27923021 5.97481505 -1.23631819 8.745197 -2.6875 12.9375 C-3.0175 12.9375 -3.3475 12.9375 -3.6875 12.9375 C-3.3575 9.9675 -3.0275 6.9975 -2.6875 3.9375 C-3.6775 4.2675 -4.6675 4.5975 -5.6875 4.9375 C-6.90619929 7.44197516 -6.90619929 7.44197516 -7.6875 9.9375 C-9.9975 9.9375 -12.3075 9.9375 -14.6875 9.9375 C-13.98625 9.40125 -13.285 8.865 -12.5625 8.3125 C-10.32004184 6.46003456 -8.68788017 4.78773681 -6.8125 2.625 C-4.22925884 -0.03166662 -4.00572835 -0.0678937 0 0 Z " fill="#7AC1CF" transform="translate(115.6875,132.0625)"/>
<path d="M0 0 C8.39607437 -0.95409936 15.68992584 3.26645377 23 7 C21.02 7 19.04 7 17 7 C17 8.65 17 10.3 17 12 C16.01 11.67 15.02 11.34 14 11 C13.67 9.35 13.34 7.7 13 6 C9.7 5.01 6.4 4.02 3 3 C2.67 3.99 2.34 4.98 2 6 C2 4.68 2 3.36 2 2 C1.34 2 0.68 2 0 2 C0 1.34 0 0.68 0 0 Z " fill="#343538" transform="translate(127,163)"/>
<path d="M0 0 C-0.33 0.66 -0.66 1.32 -1 2 C-2.1446875 1.87625 -2.1446875 1.87625 -3.3125 1.75 C-6.07180509 1.74368171 -6.07180509 1.74368171 -7.875 3.625 C-9.49174073 7.03811933 -9.24192076 8.41222892 -8 12 C-3.74595704 17.90907409 1.80601586 22.92743368 7 28 C4 28 4 28 2.39013672 26.74658203 C1.82568848 26.17278809 1.26124023 25.59899414 0.6796875 25.0078125 C0.06222656 24.38519531 -0.55523437 23.76257813 -1.19140625 23.12109375 C-2.14853516 22.13302734 -2.14853516 22.13302734 -3.125 21.125 C-3.77082031 20.47402344 -4.41664062 19.82304688 -5.08203125 19.15234375 C-10.9002812 13.23651309 -10.9002812 13.23651309 -11.3125 8.125 C-11.25797069 5.12588791 -11.07836085 4.12537736 -9.4375 1.5 C-6.17971981 -0.50478781 -3.75217167 -0.28862859 0 0 Z " fill="#899FA2" transform="translate(81,20)"/>
<path d="M0 0 C3.83672222 1.4561547 4.96544196 3.21358953 6.6875 6.875 C7.31205078 8.17050781 7.31205078 8.17050781 7.94921875 9.4921875 C9.9362233 14.23440655 10.0273131 17.58541004 9.5625 22.75 C9.46066406 23.92046875 9.35882813 25.0909375 9.25390625 26.296875 C9.17011719 27.18890625 9.08632812 28.0809375 9 29 C8.67 29 8.34 29 8 29 C7.91363281 27.96101563 7.82726562 26.92203125 7.73828125 25.8515625 C6.90641955 17.19750063 5.44531156 10.60504521 1 3 C0.67 2.01 0.34 1.02 0 0 Z " fill="#10191B" transform="translate(195,88)"/>
<path d="M0 0 C2 3 2 3 2.8125 6.5625 C4.02098711 11.79283223 6.49904628 16.28666415 9 21 C9.67028738 22.33151682 10.33823977 23.66422471 11 25 C11.66 25 12.32 25 13 25 C14.625 27.5 14.625 27.5 16 30 C12.18447383 28.50104329 10.46254954 26.2013144 8 23 C7.34 22.67 6.68 22.34 6 22 C1.46886012 16.08981754 -0.59636539 7.35517312 0 0 Z " fill="#92A7AA" transform="translate(15,182)"/>
<path d="M0 0 C-2.751124 1.40668331 -5.53143158 2.6677306 -8.375 3.875 C-14.6898888 6.67587539 -19.789226 10.53362229 -25 15 C-24.26582649 10.41392986 -21.83685573 8.56386969 -18.38671875 5.68359375 C-12.88361189 1.80169677 -6.81595258 -0.71746869 0 0 Z " fill="#121C1D" transform="translate(165,78)"/>
<path d="M0 0 C8.91 0 17.82 0 27 0 C23.05901584 3.94098416 18.27471973 3.18337967 13.0625 3.1875 C12.25103516 3.19974609 11.43957031 3.21199219 10.60351562 3.22460938 C9.81783203 3.22654297 9.03214844 3.22847656 8.22265625 3.23046875 C7.50859619 3.23457764 6.79453613 3.23868652 6.05883789 3.24291992 C3.68863868 2.96326283 2.06292733 2.17114859 0 1 C0 0.67 0 0.34 0 0 Z " fill="#111619" transform="translate(155,140)"/>
<path d="M0 0 C0.33 0 0.66 0 1 0 C1.54163259 3.09504339 1.53151662 5.20272506 -0.2421875 7.86328125 C-2.09154795 9.98961965 -4.0125868 12.00178564 -6 14 C-6.8146875 14.82886719 -7.629375 15.65773438 -8.46875 16.51171875 C-10.63058089 18.69065274 -12.80737234 20.85211984 -15 23 C-15.66 22.67 -16.32 22.34 -17 22 C-13.11930981 17.3526081 -9.21858852 13.10820914 -4.48046875 9.32421875 C-1.40974636 6.57758315 -0.63524191 3.91732509 0 0 Z " fill="#8A9C9E" transform="translate(180,26)"/>
<path d="M0 0 C0.33 0.66 0.66 1.32 1 2 C-0.359375 4.015625 -0.359375 4.015625 -3 6 C-6.44751416 6.36948557 -9.80439925 6.0540236 -13.25 5.75 C-14.18585938 5.68425781 -15.12171875 5.61851562 -16.0859375 5.55078125 C-18.39271099 5.38601171 -20.69622128 5.20181863 -23 5 C-23 4.67 -23 4.34 -23 4 C-22.09378906 3.96261719 -21.18757812 3.92523438 -20.25390625 3.88671875 C-12.95479731 3.49279859 -6.8011093 2.69699162 0 0 Z " fill="#70B0C0" transform="translate(186,139)"/>
<path d="M0 0 C0.515625 0.66 1.03125 1.32 1.5625 2 C3.92518456 4.29999545 3.92518456 4.29999545 7.4375 4.4375 C11.10882431 3.98663561 13.03986458 3.15282576 16 1 C16.33 1.99 16.66 2.98 17 4 C12.46370773 6.6553906 9.25370771 7.4956328 4 7 C3.01 6.34 2.02 5.68 1 5 C0.01 5.33 -0.98 5.66 -2 6 C-1.34 4.02 -0.68 2.04 0 0 Z " fill="#74BBC5" transform="translate(112,185)"/>
<path d="M0 0 C4.2552033 4.2552033 4.125 9.72646601 4.125 15.4375 C4.09314594 17.2918612 4.05479286 19.1461748 4 21 C3.01 21 2.02 21 1 21 C0.93941406 19.96359375 0.87882812 18.9271875 0.81640625 17.859375 C0.73196629 16.48957127 0.64732003 15.11978025 0.5625 13.75 C0.52318359 13.06808594 0.48386719 12.38617188 0.44335938 11.68359375 C0.26993455 8.93547735 0.07985797 6.31525631 -0.59765625 3.640625 C-1 2 -1 2 0 0 Z " fill="#445858" transform="translate(114,98)"/>
<path d="M0 0 C0.66 0 1.32 0 2 0 C2 0.66 2 1.32 2 2 C3.99508067 2.68124706 5.99638693 3.34427209 8 4 C9.010625 4.350625 10.02125 4.70125 11.0625 5.0625 C16.53920867 6.63612444 22.34183429 6.67667625 28 7 C28 7.33 28 7.66 28 8 C8.97524467 8.84974093 8.97524467 8.84974093 2 4 C0.7421875 1.859375 0.7421875 1.859375 0 0 Z " fill="#7A9296" transform="translate(30,210)"/>
<path d="M0 0 C0 0.33 0 0.66 0 1 C-1.299375 1.20625 -2.59875 1.4125 -3.9375 1.625 C-11.44638342 3.28050186 -17.20654331 8.14097181 -23 13 C-20.54986139 6.98602342 -15.84491935 3.42216175 -10.13671875 0.71484375 C-6.66030111 -0.44819908 -3.6367182 -0.25976559 0 0 Z " fill="#849FA3" transform="translate(47,51)"/>
<path d="M0 0 C2 2 2 2 2.15234375 4.0234375 C1.77704937 8.13120506 1.51290717 10.3845114 -1.1875 13.625 C-4.62632718 15.3062044 -6.36943409 15.01318118 -10 14 C-10 13.67 -10 13.34 -10 13 C-8.329375 12.5978125 -8.329375 12.5978125 -6.625 12.1875 C-2.78159049 11.34190981 -2.78159049 11.34190981 -1 8 C-0.54860541 5.9507906 -0.54860541 5.9507906 -0.375 3.8125 C-0.25125 2.554375 -0.1275 1.29625 0 0 Z " fill="#2E342A" transform="translate(156,155)"/>
<path d="M0 0 C0.33 0 0.66 0 1 0 C1.01417969 0.6290625 1.02835937 1.258125 1.04296875 1.90625 C1.4641089 9.46400833 3.62868824 14.62868824 9 20 C5.53266462 19.80737026 4.20412537 19.19860847 1.6875 16.75 C-1.32987534 11.83010286 -0.29547711 5.53198813 0 0 Z " fill="#090E10" transform="translate(111,170)"/>
<path d="M0 0 C0.66 0 1.32 0 2 0 C2 0.66 2 1.32 2 2 C2.66 2 3.32 2 4 2 C4 1.34 4 0.68 4 0 C4.66 0 5.32 0 6 0 C4.25 3.875 4.25 3.875 2 5 C0.125 5.1328125 0.125 5.1328125 -2 5.125 C-3.051875 5.12886719 -3.051875 5.12886719 -4.125 5.1328125 C-6 5 -6 5 -8 4 C-8 3.34 -8 2.68 -8 2 C-5.36 2.33 -2.72 2.66 0 3 C0 2.01 0 1.02 0 0 Z " fill="#E3C5A2" transform="translate(149,163)"/>
<path d="M0 0 C1.63542086 3.20970449 3.14031997 6.46807572 4.625 9.75 C5.07101563 10.73484375 5.51703125 11.7196875 5.9765625 12.734375 C6.31429687 13.48203125 6.65203125 14.2296875 7 15 C6.01 15 5.02 15 4 15 C0.95358305 11.86398255 -0.67111606 9.38511921 -1 5 C-0.5625 2.1875 -0.5625 2.1875 0 0 Z " fill="#252D2F" transform="translate(48,119)"/>
<path d="M0 0 C0.99 0.33 1.98 0.66 3 1 C1.625 2.5 1.625 2.5 0 4 C-0.66 4 -1.32 4 -2 4 C-2 4.66 -2 5.32 -2 6 C-8.4 8.21538462 -8.4 8.21538462 -11.4375 7.125 C-11.953125 6.75375 -12.46875 6.3825 -13 6 C-11.7315625 5.62875 -11.7315625 5.62875 -10.4375 5.25 C-7.71514635 4.26005322 -5.73465295 3.30186639 -3.3125 1.8125 C-2.219375 1.214375 -1.12625 0.61625 0 0 Z " fill="#283135" transform="translate(191,133)"/>
<path d="M0 0 C6.40629424 -0.20852314 11.92972642 -0.1583195 18 2 C17.67 2.66 17.34 3.32 17 4 C11.72 3.67 6.44 3.34 1 3 C0.67 2.01 0.34 1.02 0 0 Z " fill="#273537" transform="translate(77,80)"/>
<path d="M0 0 C7.28484765 0.231265 12.61460919 1.86704939 18 7 C18.75 9.19921875 18.75 9.19921875 19 11 C18.55011719 10.61328125 18.10023438 10.2265625 17.63671875 9.828125 C12.17156872 5.4034344 6.68246843 3.08827138 0 1 C0 0.67 0 0.34 0 0 Z " fill="#859EA1" transform="translate(205,51)"/>
<path d="M0 0 C0.66 0 1.32 0 2 0 C2.18175781 0.54269531 2.36351563 1.08539063 2.55078125 1.64453125 C2.80214844 2.35996094 3.05351563 3.07539063 3.3125 3.8125 C3.55613281 4.52019531 3.79976563 5.22789062 4.05078125 5.95703125 C5.06724258 8.14472373 6.20820594 9.40896718 8 11 C6.68 11.33 5.36 11.66 4 12 C0.46209597 8.30827405 0.40884117 4.90609405 0 0 Z " fill="#252825" transform="translate(101,157)"/>
<path d="M0 0 C0.99 0 1.98 0 3 0 C2.67 2.97 2.34 5.94 2 9 C0.68 9 -0.64 9 -2 9 C-1.67 8.34 -1.34 7.68 -1 7 C-1.33 6.67 -1.66 6.34 -2 6 C-1.34 4.02 -0.68 2.04 0 0 Z " fill="#71D0E5" transform="translate(110,136)"/>
<path d="M0 0 C4.44936709 -0.36075949 4.44936709 -0.36075949 6.8125 1.1875 C8.36678206 3.55982525 8.22537188 5.22041345 8 8 C5 6 2 4 -1 2 C-0.67 1.34 -0.34 0.68 0 0 Z " fill="#73B9C2" transform="translate(135,131)"/>
<path d="M0 0 C0.33 0 0.66 0 1 0 C0.7464147 4.31095008 0.4154009 6.49714628 -2.375 9.875 C-5 12 -5 12 -8 13 C-7 10 -7 10 -4.5625 7.625 C-2.07392216 5.07572514 -1.05218733 3.34786879 0 0 Z " fill="#93A8AC" transform="translate(83,217)"/>
<path d="M0 0 C4.12751449 0.60698743 7.3321148 2.03810791 11 4 C10.67 4.66 10.34 5.32 10 6 C6.05879291 5.43697042 3.2491277 4.3208055 0 2 C0 1.34 0 0.68 0 0 Z " fill="#1F282D" transform="translate(145,135)"/>
<path d="M0 0 C3.375 -0.125 3.375 -0.125 7 0 C9 2 9 2 9 4 C6.03 3.505 6.03 3.505 3 3 C2.67 3.99 2.34 4.98 2 6 C2 4.68 2 3.36 2 2 C1.34 2 0.68 2 0 2 C0 1.34 0 0.68 0 0 Z " fill="#544C45" transform="translate(127,163)"/>
<path d="M0 0 C4.20390632 1.50139512 5.89110738 4.17275043 8 8 C7.67 8.99 7.34 9.98 7 11 C5.82750647 9.54634731 4.66216184 8.08692581 3.5 6.625 C2.52546875 5.40683594 2.52546875 5.40683594 1.53125 4.1640625 C0 2 0 2 0 0 Z " fill="#131E21" transform="translate(106,89)"/>
<path d="M0 0 C1.98 0.495 1.98 0.495 4 1 C3.67 2.65 3.34 4.3 3 6 C1.68 5.67 0.36 5.34 -1 5 C-0.67 3.35 -0.34 1.7 0 0 Z " fill="#DADADA" transform="translate(68,115)"/>
<path d="M0 0 C1.32 0.99 2.64 1.98 4 3 C4.25 6.1875 4.25 6.1875 4 9 C3.01 9.33 2.02 9.66 1 10 C0.67 6.7 0.34 3.4 0 0 Z " fill="#74C5D0" transform="translate(143,135)"/>
<path d="M0 0 C0.66 1.32 1.32 2.64 2 4 C0 7 0 7 -2.625 7.6875 C-3.800625 7.8421875 -3.800625 7.8421875 -5 8 C-5 7.01 -5 6.02 -5 5 C-3.35 4.67 -1.7 4.34 0 4 C0 2.68 0 1.36 0 0 Z " fill="#262C28" transform="translate(113,141)"/>
<path d="M0 0 C0.33 0 0.66 0 1 0 C1.17835515 4.54805635 0.99785435 7.8794254 -1 12 C-1.66 11.67 -2.32 11.34 -3 11 C-2.53199289 6.94393835 -2.12046792 3.53411321 0 0 Z " fill="#263439" transform="translate(204,111)"/>
<path d="M0 0 C3.2626876 3.08632611 6.02235218 5.93483504 8 10 C7.67 10.66 7.34 11.32 7 12 C4.07811678 9.3703051 2.02701452 6.35505851 0 3 C0 2.01 0 1.02 0 0 Z " fill="#94A8AB" transform="translate(224,60)"/>
<path d="M0 0 C0.33 0 0.66 0 1 0 C0.73781251 4.4571874 0.42288711 6.51522698 -2.5625 9.9375 C-3.366875 10.618125 -4.17125 11.29875 -5 12 C-5.66 11.34 -6.32 10.68 -7 10 C-6.21625 9.46375 -5.4325 8.9275 -4.625 8.375 C-1.66573701 5.69757158 -0.95391744 3.81566975 0 0 Z " fill="#8EA5A9" transform="translate(192,217)"/>
<path d="M0 0 C0.99 1.32 1.98 2.64 3 4 C2.34 4 1.68 4 1 4 C0.896875 4.639375 0.79375 5.27875 0.6875 5.9375 C0.460625 6.618125 0.23375 7.29875 0 8 C-0.99 8.33 -1.98 8.66 -3 9 C-3.33 8.01 -3.66 7.02 -4 6 C-3.34 6 -2.68 6 -2 6 C-1.34 4.02 -0.68 2.04 0 0 Z " fill="#EFF0EE" transform="translate(55,121)"/>
<path d="M0 0 C0.33 0 0.66 0 1 0 C1.66 3.96 2.32 7.92 3 12 C2.01 12 1.02 12 0 12 C-1.16063604 7.74433453 -0.76173392 4.3164922 0 0 Z " fill="#393B3D" transform="translate(134,110)"/>
<path d="M0 0 C0.99 0.33 1.98 0.66 3 1 C2.67 2.65 2.34 4.3 2 6 C1.01 6 0.02 6 -1 6 C-1.042721 4.33388095 -1.04063832 2.66617115 -1 1 C-0.67 0.67 -0.34 0.34 0 0 Z " fill="#EBEBEB" transform="translate(155,112)"/>
<path d="M0 0 C0.66 0 1.32 0 2 0 C0.44499019 3.81684226 -2.03595495 6.19195732 -5 9 C-5.66 8.67 -6.32 8.34 -7 8 C-5.88200014 6.66079162 -4.75538103 5.32877444 -3.625 4 C-2.68527344 2.88625 -2.68527344 2.88625 -1.7265625 1.75 C-1.15679687 1.1725 -0.58703125 0.595 0 0 Z " fill="#8EA4A7" transform="translate(170,40)"/>
<path d="M0 0 C-0.33 0.99 -0.66 1.98 -1 3 C-3.31 3.33 -5.62 3.66 -8 4 C-8 3.34 -8 2.68 -8 2 C-4.91190305 0.23537317 -3.76687864 0 0 0 Z " fill="#44382F" transform="translate(126,164)"/>
<path d="M0 0 C2.64 0 5.28 0 8 0 C8 0.66 8 1.32 8 2 C7.34 2 6.68 2 6 2 C5.67 2.66 5.34 3.32 5 4 C3.31503702 3.03114628 1.64821244 2.03013277 0 1 C0 0.67 0 0.34 0 0 Z " fill="#6EB8BC" transform="translate(144,170)"/>
<path d="M0 0 C0.99 0.495 0.99 0.495 2 1 C2 1.66 2 2.32 2 3 C4.97 3.495 4.97 3.495 8 4 C6.25 5.125 6.25 5.125 4 6 C1.75 5.125 1.75 5.125 0 4 C0 2.68 0 1.36 0 0 Z " fill="#2F3235" transform="translate(129,184)"/>
<path d="M0 0 C2.97 0.495 2.97 0.495 6 1 C6 1.99 6 2.98 6 4 C4.35 3.67 2.7 3.34 1 3 C0.67 2.01 0.34 1.02 0 0 Z " fill="#E7E7E5" transform="translate(115,184)"/>
<path d="M0 0 C1.65 0.33 3.3 0.66 5 1 C3.68 2.32 2.36 3.64 1 5 C0.34 4.01 -0.32 3.02 -1 2 C-0.67 1.34 -0.34 0.68 0 0 Z " fill="#EFF5EE" transform="translate(121,182)"/>
<path d="M0 0 C0.33 0.66 0.66 1.32 1 2 C-0.375 3.5 -0.375 3.5 -2 5 C-2.66 5 -3.32 5 -4 5 C-4 4.34 -4 3.68 -4 3 C-4.66 2.67 -5.32 2.34 -6 2 C-4.02 1.34 -2.04 0.68 0 0 Z " fill="#75B7C8" transform="translate(186,139)"/>
<path d="M0 0 C0.99 0.33 1.98 0.66 3 1 C0.94766315 3.2477975 -0.00667261 4.0022242 -3 5 C-3.66 4.34 -4.32 3.68 -5 3 C-2.6875 1.4375 -2.6875 1.4375 0 0 Z " fill="#20282C" transform="translate(191,133)"/>
<path d="M0 0 C0.99 0.99 1.98 1.98 3 3 C-0.75 5 -0.75 5 -3 5 C-2.625 3.0625 -2.625 3.0625 -2 1 C-1.34 0.67 -0.68 0.34 0 0 Z " fill="#EFEDE9" transform="translate(107,92)"/>
<path d="M0 0 C0.33 0.66 0.66 1.32 1 2 C2.65 2 4.3 2 6 2 C6 2.66 6 3.32 6 4 C4.35 4.33 2.7 4.66 1 5 C1 4.34 1 3.68 1 3 C0.34 2.67 -0.32 2.34 -1 2 C-0.67 1.34 -0.34 0.68 0 0 Z " fill="#76BECD" transform="translate(155,74)"/>
</svg>
